solid OpenSCAD_Model
  facet normal -0 0 1
    outer loop
      vertex -90 2.475 2.475
      vertex 90 -2.475 2.475
      vertex 90 2.475 2.475
    endloop
  endfacet
  facet normal 0 0 1
    outer loop
      vertex 90 -2.475 2.475
      vertex -90 2.475 2.475
      vertex -90 -2.475 2.475
    endloop
  endfacet
  facet normal 0 0 -1
    outer loop
      vertex -90 -2.475 -2.475
      vertex 90 2.475 -2.475
      vertex 90 -2.475 -2.475
    endloop
  endfacet
  facet normal -0 0 -1
    outer loop
      vertex 90 2.475 -2.475
      vertex -90 -2.475 -2.475
      vertex -90 2.475 -2.475
    endloop
  endfacet
  facet normal 0 -1 0
    outer loop
      vertex -90 -2.475 -2.475
      vertex 90 -2.475 2.475
      vertex -90 -2.475 2.475
    endloop
  endfacet
  facet normal 0 -1 -0
    outer loop
      vertex 90 -2.475 2.475
      vertex -90 -2.475 -2.475
      vertex 90 -2.475 -2.475
    endloop
  endfacet
  facet normal 1 -0 0
    outer loop
      vertex 90 -2.475 2.475
      vertex 90 2.475 -2.475
      vertex 90 2.475 2.475
    endloop
  endfacet
  facet normal 1 0 0
    outer loop
      vertex 90 2.475 -2.475
      vertex 90 -2.475 2.475
      vertex 90 -2.475 -2.475
    endloop
  endfacet
  facet normal 0 1 -0
    outer loop
      vertex 90 2.475 -2.475
      vertex -90 2.475 2.475
      vertex 90 2.475 2.475
    endloop
  endfacet
  facet normal 0 1 0
    outer loop
      vertex -90 2.475 2.475
      vertex 90 2.475 -2.475
      vertex -90 2.475 -2.475
    endloop
  endfacet
  facet normal -1 0 0
    outer loop
      vertex -90 -2.475 -2.475
      vertex -90 2.475 2.475
      vertex -90 2.475 -2.475
    endloop
  endfacet
  facet normal -1 -0 0
    outer loop
      vertex -90 2.475 2.475
      vertex -90 -2.475 -2.475
      vertex -90 -2.475 2.475
    endloop
  endfacet
endsolid OpenSCAD_Model
